<svg id="Layer_1" enable-background="new 0 0 256 256" height="512" viewBox="0 0 256 256" width="512" xmlns="http://www.w3.org/2000/svg"><g><path d="m29.619 181.632c-7.724 0-14.009-6.285-14.009-14.009v-126.891c0-7.724 6.285-14.009 14.009-14.009h196.762c7.724 0 14.009 6.285 14.009 14.009v126.892c0 7.724-6.285 14.009-14.009 14.009h-196.762z" fill="#f46275"/><path d="m231.769 155.322c0 2.963-2.425 5.388-5.388 5.388h-196.762c-2.963 0-5.388-2.425-5.388-5.388v-114.591c0-2.963 2.425-5.388 5.388-5.388h196.762c2.963 0 5.388 2.425 5.388 5.388z" fill="#63bce7"/><path d="m33.991 155.322v-114.591c0-2.963 2.425-5.388 5.388-5.388h-9.76c-2.963 0-5.388 2.425-5.388 5.388v114.59c0 2.963 2.425 5.388 5.388 5.388h9.76c-2.964.001-5.388-2.424-5.388-5.387z" fill="#6377e7"/><path d="m222.009 155.322v-114.591c0-2.963-2.425-5.388-5.388-5.388h9.76c2.963 0 5.388 2.425 5.388 5.388v114.59c0 2.963-2.425 5.388-5.388 5.388h-9.76c2.964.001 5.388-2.424 5.388-5.387z" fill="#63e2e7"/><path d="m88.847 204.348h78.305v9.429h-78.305z" fill="#f46275"/><path d="m99.983 181.632h56.035v22.716h-56.035z" fill="#9e9e9e"/><path d="m88.847 204.348h9.76v9.429h-9.76z" fill="#f43075"/><path d="m99.983 181.632h9.76v22.716h-9.76z" fill="#707070"/><circle cx="128" cy="171.171" fill="#f8af23" r="4.613"/><g><path d="m98.505 67.844h114.351v72.667h-114.351z" fill="#f8af23"/><g><path d="m119.397 76.305v11.847h-11.847c0 6.543 5.304 11.847 11.847 11.847s11.847-5.304 11.847-11.847-5.304-11.847-11.847-11.847z" fill="#9e9e9e"/><path d="m119.397 76.305c-6.543 0-11.847 5.304-11.847 11.847h11.847z" fill="#63bce7"/></g><path d="m107.55 109.5h23.695v21.5h-23.695z" fill="#f46275"/><g fill="#9e9e9e"><circle cx="155.061" cy="118.337" r="5"/><circle cx="175.852" cy="118.337" r="5"/><circle cx="196.644" cy="118.337" r="5"/></g><path d="m43.144 59.165h40.25v90.025h-40.25z" fill="#f46275"/><g><g fill="#f8af23"><path d="m51.139 91.301c0-6.699 5.431-12.13 12.13-12.13s12.13 5.431 12.13 12.13z"/><circle cx="63.269" cy="72.695" r="6.475"/></g><g fill="#63bce7"><path d="m51.139 123.542h24.261v6.5h-24.261z"/><path d="m51.139 135.636h24.261v6.5h-24.261z"/></g><g fill="#321f7a"><path d="m233.269 155.322v-114.591c0-3.798-3.09-6.888-6.888-6.888h-196.762c-3.798 0-6.888 3.09-6.888 6.888v114.59c0 3.798 3.09 6.888 6.888 6.888h196.762c3.798 0 6.888-3.089 6.888-6.887zm-207.538 0v-114.591c0-2.144 1.744-3.888 3.888-3.888h196.762c2.144 0 3.888 1.744 3.888 3.888v114.59c0 2.144-1.744 3.888-3.888 3.888h-196.762c-2.144 0-3.888-1.744-3.888-3.887z"/><path d="m128 165.058c-3.371 0-6.113 2.742-6.113 6.113s2.742 6.113 6.113 6.113 6.113-2.742 6.113-6.113-2.742-6.113-6.113-6.113zm0 9.226c-1.717 0-3.113-1.396-3.113-3.113s1.396-3.113 3.113-3.113 3.113 1.396 3.113 3.113-1.396 3.113-3.113 3.113z"/><path d="m36.875 40.592c-2.413 0-4.375 1.962-4.375 4.375s1.962 4.375 4.375 4.375 4.375-1.962 4.375-4.375-1.962-4.375-4.375-4.375zm0 5.75c-.758 0-1.375-.617-1.375-1.375s.617-1.375 1.375-1.375 1.375.617 1.375 1.375-.617 1.375-1.375 1.375z"/><path d="m52.209 49.342c2.413 0 4.375-1.962 4.375-4.375s-1.962-4.375-4.375-4.375-4.375 1.962-4.375 4.375 1.962 4.375 4.375 4.375zm0-5.75c.758 0 1.375.617 1.375 1.375s-.617 1.375-1.375 1.375-1.375-.617-1.375-1.375.617-1.375 1.375-1.375z"/><path d="m67.542 49.342c2.413 0 4.375-1.962 4.375-4.375s-1.962-4.375-4.375-4.375-4.375 1.962-4.375 4.375 1.963 4.375 4.375 4.375zm0-5.75c.758 0 1.375.617 1.375 1.375s-.617 1.375-1.375 1.375-1.375-.617-1.375-1.375.617-1.375 1.375-1.375z"/><path d="m80 46.467h118.25c.829 0 1.5-.671 1.5-1.5s-.671-1.5-1.5-1.5h-118.25c-.829 0-1.5.671-1.5 1.5s.671 1.5 1.5 1.5z"/><path d="m27.323 227.777h-18.003c-.829 0-1.5.671-1.5 1.5s.671 1.5 1.5 1.5h18.003c.829 0 1.5-.671 1.5-1.5s-.671-1.5-1.5-1.5z"/><path d="m246.68 227.777h-18.003c-.829 0-1.5.671-1.5 1.5s.671 1.5 1.5 1.5h18.003c.829 0 1.5-.671 1.5-1.5s-.671-1.5-1.5-1.5z"/><path d="m218.479 227.777h-180.958c-.829 0-1.5.671-1.5 1.5s.671 1.5 1.5 1.5h180.959c.829 0 1.5-.671 1.5-1.5s-.672-1.5-1.501-1.5z"/><path d="m9.32 215.277h79.527 78.306 79.527c.829 0 1.5-.671 1.5-1.5s-.671-1.5-1.5-1.5h-78.027v-7.929c0-.829-.671-1.5-1.5-1.5h-9.635v-19.716h68.864c8.551 0 15.508-6.957 15.508-15.509v-126.892c0-8.552-6.957-15.509-15.508-15.509h-196.763c-8.551 0-15.508 6.957-15.508 15.509v126.892c0 8.552 6.957 15.509 15.508 15.509h68.864v19.716h-9.635c-.829 0-1.5.671-1.5 1.5v7.929h-78.028c-.829 0-1.5.671-1.5 1.5s.671 1.5 1.5 1.5zm7.79-47.653v-126.893c0-6.897 5.611-12.509 12.508-12.509h196.763c6.897 0 12.508 5.611 12.508 12.509v126.892c0 6.897-5.611 12.509-12.508 12.509h-70.364-56.035-70.363c-6.897 0-12.509-5.611-12.509-12.508zm84.372 15.508h53.035v19.716h-53.035zm-11.135 22.716h9.635 56.035 9.635v6.429h-75.305z"/><path d="m212.856 66.344h-114.351c-.829 0-1.5.671-1.5 1.5v72.667c0 .829.671 1.5 1.5 1.5h114.351c.829 0 1.5-.671 1.5-1.5v-72.667c0-.828-.671-1.5-1.5-1.5zm-1.5 72.667h-111.351v-69.667h111.351z"/><path d="m119.397 101.5c7.36 0 13.347-5.987 13.347-13.347s-5.987-13.348-13.347-13.348-13.347 5.988-13.347 13.348 5.987 13.347 13.347 13.347zm-1.5-23.586v8.739h-8.739c.658-4.507 4.232-8.082 8.739-8.739zm1.5 11.739c.829 0 1.5-.671 1.5-1.5v-10.239c4.997.729 8.847 5.043 8.847 10.239 0 5.706-4.642 10.347-10.347 10.347-5.196 0-9.51-3.85-10.239-8.847z"/><path d="m107.55 132.5h23.694c.829 0 1.5-.671 1.5-1.5v-21.5c0-.829-.671-1.5-1.5-1.5h-23.694c-.829 0-1.5.671-1.5 1.5v21.5c0 .829.671 1.5 1.5 1.5zm1.5-21.5h20.694v18.5h-20.694z"/><path d="m150.061 77.805h51.583c.829 0 1.5-.671 1.5-1.5s-.671-1.5-1.5-1.5h-51.583c-.829 0-1.5.671-1.5 1.5s.671 1.5 1.5 1.5z"/><path d="m150.061 89.653h51.583c.829 0 1.5-.671 1.5-1.5s-.671-1.5-1.5-1.5h-51.583c-.829 0-1.5.671-1.5 1.5s.671 1.5 1.5 1.5z"/><path d="m150.061 101.5h51.583c.829 0 1.5-.671 1.5-1.5s-.671-1.5-1.5-1.5h-51.583c-.829 0-1.5.671-1.5 1.5s.671 1.5 1.5 1.5z"/><path d="m155.061 124.837c3.584 0 6.5-2.916 6.5-6.5s-2.916-6.5-6.5-6.5-6.5 2.916-6.5 6.5 2.916 6.5 6.5 6.5zm0-10c1.93 0 3.5 1.57 3.5 3.5s-1.57 3.5-3.5 3.5-3.5-1.57-3.5-3.5 1.57-3.5 3.5-3.5z"/><path d="m175.853 111.837c-3.584 0-6.5 2.916-6.5 6.5s2.916 6.5 6.5 6.5 6.5-2.916 6.5-6.5-2.916-6.5-6.5-6.5zm0 10c-1.93 0-3.5-1.57-3.5-3.5s1.57-3.5 3.5-3.5 3.5 1.57 3.5 3.5-1.571 3.5-3.5 3.5z"/><path d="m196.644 111.837c-3.584 0-6.5 2.916-6.5 6.5s2.916 6.5 6.5 6.5 6.5-2.916 6.5-6.5-2.916-6.5-6.5-6.5zm0 10c-1.93 0-3.5-1.57-3.5-3.5s1.57-3.5 3.5-3.5 3.5 1.57 3.5 3.5-1.57 3.5-3.5 3.5z"/><path d="m83.394 57.665h-40.25c-.829 0-1.5.671-1.5 1.5v90.025c0 .829.671 1.5 1.5 1.5h40.25c.829 0 1.5-.671 1.5-1.5v-90.025c0-.829-.671-1.5-1.5-1.5zm-1.5 90.025h-37.25v-87.025h37.25z"/><path d="m51.139 92.8h24.261c.829 0 1.5-.671 1.5-1.5 0-5.668-3.479-10.535-8.413-12.588 1.686-1.463 2.758-3.616 2.758-6.018 0-4.398-3.578-7.976-7.976-7.976s-7.976 3.578-7.976 7.976c0 2.402 1.072 4.554 2.758 6.018-4.933 2.053-8.413 6.92-8.413 12.588.001.829.672 1.5 1.501 1.5zm7.154-20.105c0-2.744 2.232-4.976 4.976-4.976s4.976 2.232 4.976 4.976c0 2.743-2.232 4.975-4.976 4.975s-4.976-2.232-4.976-4.975zm4.976 7.975c5.353 0 9.794 3.977 10.525 9.13h-21.05c.731-5.154 5.173-9.13 10.525-9.13z"/><path d="m51.139 99.208h24.261c.829 0 1.5-.671 1.5-1.5s-.671-1.5-1.5-1.5h-24.261c-.829 0-1.5.671-1.5 1.5s.671 1.5 1.5 1.5z"/><path d="m51.139 106.042h24.261c.829 0 1.5-.671 1.5-1.5s-.671-1.5-1.5-1.5h-24.261c-.829 0-1.5.671-1.5 1.5s.671 1.5 1.5 1.5z"/><path d="m51.139 112.875h24.261c.829 0 1.5-.671 1.5-1.5s-.671-1.5-1.5-1.5h-24.261c-.829 0-1.5.671-1.5 1.5s.671 1.5 1.5 1.5z"/><path d="m51.139 119.708h24.261c.829 0 1.5-.671 1.5-1.5s-.671-1.5-1.5-1.5h-24.261c-.829 0-1.5.671-1.5 1.5s.671 1.5 1.5 1.5z"/><path d="m51.139 131.542h24.261c.829 0 1.5-.671 1.5-1.5v-6.5c0-.829-.671-1.5-1.5-1.5h-24.261c-.829 0-1.5.671-1.5 1.5v6.5c0 .828.671 1.5 1.5 1.5zm1.5-6.5h21.261v3.5h-21.261z"/><path d="m51.139 143.636h24.261c.829 0 1.5-.671 1.5-1.5v-6.5c0-.829-.671-1.5-1.5-1.5h-24.261c-.829 0-1.5.671-1.5 1.5v6.5c0 .828.671 1.5 1.5 1.5zm1.5-6.5h21.261v3.5h-21.261z"/></g></g></g></g></svg>